<?xml version="1.0" encoding="iso-8859-1"?>
<!-- Generator: Adobe Illustrator 18.1.1, SVG Export Plug-In . SVG Version: 6.00 Build 0)  -->
<svg version="1.1" id="Capa_1" xmlns="http://www.w3.org/2000/svg" xmlns:xlink="http://www.w3.org/1999/xlink" x="0px" y="0px"
	 viewBox="0 0 33.647 33.647" style="enable-background:new 0 0 33.647 33.647;" xml:space="preserve">
<g>
	<g id="b151_coffee">
		<path d="M7.785,12.322h1.57l0.031,0.271l0,0l0.402,3.564l0.223,1.977l0.013,0.014l0.065,0.67l0.556,4.922l0.011,0.012l1.113,9.895
			h10.106v-0.049l0.016,0.012l0.491-4.615l0.023,0.02l0.503-4.492l1.381-12.199h1.572V8.033H7.785V12.322z M21.994,29.17
			l-0.402,3.67l-10.585-9.289l-0.506-4.477L21.994,29.17z"/>
		<polygon points="24.646,3.363 24.646,1.805 22.868,1.805 22.868,0 10.778,0 10.778,1.805 8.994,1.805 8.994,3.363 7.785,3.363 
			7.785,6.707 25.861,6.707 25.861,3.363 		"/>
	</g>
	<g id="Capa_1_88_">
	</g>
</g>
<g>
</g>
<g>
</g>
<g>
</g>
<g>
</g>
<g>
</g>
<g>
</g>
<g>
</g>
<g>
</g>
<g>
</g>
<g>
</g>
<g>
</g>
<g>
</g>
<g>
</g>
<g>
</g>
<g>
</g>
</svg>
